<mxfile host="app.diagrams.net" modified="2023-10-08T03:44:21.472Z" agent="Mozilla/5.0 (Windows NT 10.0; Win64; x64) AppleWebKit/537.36 (KHTML, like Gecko) Chrome/117.0.0.0 Safari/537.36" etag="_elxHf8E6LCLL36zC2pC" version="22.0.4" type="device">
  <diagram name="Page-1" id="Xt1Z6AxJajSEo_a2TMJG">
    <mxGraphModel dx="1584" dy="656" grid="1" gridSize="10" guides="1" tooltips="1" connect="1" arrows="1" fold="1" page="1" pageScale="1" pageWidth="850" pageHeight="1100" math="0" shadow="0">
      <root>
        <mxCell id="0" />
        <mxCell id="1" parent="0" />
        <mxCell id="FgL4tiW9ZXgM-cEQ66zf-1" value="&lt;font style=&quot;font-size: 15px;&quot;&gt;03/07/23&lt;br&gt;03/07/23&lt;/font&gt;" style="ellipse;whiteSpace=wrap;html=1;aspect=fixed;" vertex="1" parent="1">
          <mxGeometry x="30" y="30" width="80" height="80" as="geometry" />
        </mxCell>
        <mxCell id="FgL4tiW9ZXgM-cEQ66zf-2" value="&lt;font style=&quot;font-size: 15px;&quot;&gt;03/07/23&lt;br&gt;03/07/23&lt;/font&gt;" style="ellipse;whiteSpace=wrap;html=1;aspect=fixed;" vertex="1" parent="1">
          <mxGeometry x="270" y="30" width="80" height="80" as="geometry" />
        </mxCell>
        <mxCell id="FgL4tiW9ZXgM-cEQ66zf-3" value="&lt;font style=&quot;font-size: 15px;&quot;&gt;04/07/23&lt;br&gt;04/07/23&lt;/font&gt;" style="ellipse;whiteSpace=wrap;html=1;aspect=fixed;" vertex="1" parent="1">
          <mxGeometry x="140" y="140" width="80" height="80" as="geometry" />
        </mxCell>
        <mxCell id="FgL4tiW9ZXgM-cEQ66zf-4" value="&lt;font style=&quot;font-size: 15px;&quot;&gt;16/07/23&lt;br&gt;15/07/23&lt;/font&gt;" style="ellipse;whiteSpace=wrap;html=1;aspect=fixed;" vertex="1" parent="1">
          <mxGeometry x="400" y="140" width="80" height="80" as="geometry" />
        </mxCell>
        <mxCell id="FgL4tiW9ZXgM-cEQ66zf-5" value="&lt;font style=&quot;font-size: 15px;&quot;&gt;17/07/23&lt;br&gt;16/07/23&lt;/font&gt;" style="ellipse;whiteSpace=wrap;html=1;aspect=fixed;" vertex="1" parent="1">
          <mxGeometry x="285" y="240" width="80" height="80" as="geometry" />
        </mxCell>
        <mxCell id="FgL4tiW9ZXgM-cEQ66zf-6" value="&lt;font style=&quot;font-size: 15px;&quot;&gt;31/07/23&lt;br&gt;02/08/23&lt;/font&gt;" style="ellipse;whiteSpace=wrap;html=1;aspect=fixed;" vertex="1" parent="1">
          <mxGeometry x="555" y="240" width="80" height="80" as="geometry" />
        </mxCell>
        <mxCell id="FgL4tiW9ZXgM-cEQ66zf-7" value="&lt;font style=&quot;font-size: 15px;&quot;&gt;01/08/23&lt;br&gt;03/08/23&lt;/font&gt;" style="ellipse;whiteSpace=wrap;html=1;aspect=fixed;" vertex="1" parent="1">
          <mxGeometry x="445" y="340" width="80" height="80" as="geometry" />
        </mxCell>
        <mxCell id="FgL4tiW9ZXgM-cEQ66zf-8" value="&lt;font style=&quot;font-size: 15px;&quot;&gt;30/08/23&lt;br&gt;01/09/23&lt;/font&gt;" style="ellipse;whiteSpace=wrap;html=1;aspect=fixed;" vertex="1" parent="1">
          <mxGeometry x="695" y="340" width="80" height="80" as="geometry" />
        </mxCell>
        <mxCell id="FgL4tiW9ZXgM-cEQ66zf-9" value="" style="endArrow=none;html=1;rounded=0;entryX=0;entryY=0.5;entryDx=0;entryDy=0;exitX=1;exitY=0.5;exitDx=0;exitDy=0;" edge="1" parent="1" source="FgL4tiW9ZXgM-cEQ66zf-1" target="FgL4tiW9ZXgM-cEQ66zf-2">
          <mxGeometry width="50" height="50" relative="1" as="geometry">
            <mxPoint x="190" y="270" as="sourcePoint" />
            <mxPoint x="240" y="220" as="targetPoint" />
          </mxGeometry>
        </mxCell>
        <mxCell id="FgL4tiW9ZXgM-cEQ66zf-10" value="&lt;font style=&quot;font-size: 15px;&quot;&gt;Project Initiation&lt;/font&gt;" style="text;html=1;align=center;verticalAlign=middle;resizable=0;points=[];autosize=1;strokeColor=none;fillColor=none;" vertex="1" parent="1">
          <mxGeometry x="115" y="38" width="130" height="30" as="geometry" />
        </mxCell>
        <mxCell id="FgL4tiW9ZXgM-cEQ66zf-11" value="" style="endArrow=none;html=1;rounded=0;entryX=0;entryY=0.5;entryDx=0;entryDy=0;exitX=1;exitY=0.5;exitDx=0;exitDy=0;" edge="1" parent="1" source="FgL4tiW9ZXgM-cEQ66zf-3" target="FgL4tiW9ZXgM-cEQ66zf-4">
          <mxGeometry width="50" height="50" relative="1" as="geometry">
            <mxPoint x="240" y="260" as="sourcePoint" />
            <mxPoint x="290" y="210" as="targetPoint" />
          </mxGeometry>
        </mxCell>
        <mxCell id="FgL4tiW9ZXgM-cEQ66zf-12" value="&lt;font style=&quot;font-size: 15px;&quot;&gt;Requirement Analysis&lt;/font&gt;" style="text;html=1;align=center;verticalAlign=middle;resizable=0;points=[];autosize=1;strokeColor=none;fillColor=none;" vertex="1" parent="1">
          <mxGeometry x="225" y="150" width="170" height="30" as="geometry" />
        </mxCell>
        <mxCell id="FgL4tiW9ZXgM-cEQ66zf-13" value="" style="endArrow=none;html=1;rounded=0;entryX=0;entryY=0.5;entryDx=0;entryDy=0;exitX=1;exitY=0.5;exitDx=0;exitDy=0;" edge="1" parent="1" source="FgL4tiW9ZXgM-cEQ66zf-5" target="FgL4tiW9ZXgM-cEQ66zf-6">
          <mxGeometry width="50" height="50" relative="1" as="geometry">
            <mxPoint x="315" y="240" as="sourcePoint" />
            <mxPoint x="365" y="190" as="targetPoint" />
          </mxGeometry>
        </mxCell>
        <mxCell id="FgL4tiW9ZXgM-cEQ66zf-14" value="&lt;font style=&quot;font-size: 15px;&quot;&gt;Designing&lt;/font&gt;" style="text;html=1;align=center;verticalAlign=middle;resizable=0;points=[];autosize=1;strokeColor=none;fillColor=none;" vertex="1" parent="1">
          <mxGeometry x="400" y="248" width="90" height="30" as="geometry" />
        </mxCell>
        <mxCell id="FgL4tiW9ZXgM-cEQ66zf-15" value="" style="endArrow=none;html=1;rounded=0;exitX=1;exitY=0.5;exitDx=0;exitDy=0;entryX=0;entryY=0.5;entryDx=0;entryDy=0;" edge="1" parent="1" source="FgL4tiW9ZXgM-cEQ66zf-7" target="FgL4tiW9ZXgM-cEQ66zf-8">
          <mxGeometry width="50" height="50" relative="1" as="geometry">
            <mxPoint x="560" y="410" as="sourcePoint" />
            <mxPoint x="685" y="380" as="targetPoint" />
          </mxGeometry>
        </mxCell>
        <mxCell id="FgL4tiW9ZXgM-cEQ66zf-16" value="&lt;font style=&quot;font-size: 15px;&quot;&gt;Coding&lt;/font&gt;" style="text;html=1;align=center;verticalAlign=middle;resizable=0;points=[];autosize=1;strokeColor=none;fillColor=none;" vertex="1" parent="1">
          <mxGeometry x="570" y="348" width="70" height="30" as="geometry" />
        </mxCell>
        <mxCell id="FgL4tiW9ZXgM-cEQ66zf-17" value="&lt;font style=&quot;font-size: 15px;&quot;&gt;31/08/23&lt;br&gt;02/09/23&lt;/font&gt;" style="ellipse;whiteSpace=wrap;html=1;aspect=fixed;" vertex="1" parent="1">
          <mxGeometry x="275" y="440" width="80" height="80" as="geometry" />
        </mxCell>
        <mxCell id="FgL4tiW9ZXgM-cEQ66zf-18" value="&lt;font style=&quot;font-size: 15px;&quot;&gt;14/09/23&lt;br&gt;16/09/23&lt;/font&gt;" style="ellipse;whiteSpace=wrap;html=1;aspect=fixed;" vertex="1" parent="1">
          <mxGeometry x="505" y="440" width="80" height="80" as="geometry" />
        </mxCell>
        <mxCell id="FgL4tiW9ZXgM-cEQ66zf-19" value="" style="endArrow=none;html=1;rounded=0;exitX=1;exitY=0.5;exitDx=0;exitDy=0;entryX=0;entryY=0.5;entryDx=0;entryDy=0;" edge="1" parent="1" source="FgL4tiW9ZXgM-cEQ66zf-17" target="FgL4tiW9ZXgM-cEQ66zf-18">
          <mxGeometry width="50" height="50" relative="1" as="geometry">
            <mxPoint x="555" y="410" as="sourcePoint" />
            <mxPoint x="605" y="360" as="targetPoint" />
          </mxGeometry>
        </mxCell>
        <mxCell id="FgL4tiW9ZXgM-cEQ66zf-20" value="&lt;font style=&quot;font-size: 15px;&quot;&gt;Testing&lt;/font&gt;" style="text;html=1;align=center;verticalAlign=middle;resizable=0;points=[];autosize=1;strokeColor=none;fillColor=none;" vertex="1" parent="1">
          <mxGeometry x="400" y="450" width="70" height="30" as="geometry" />
        </mxCell>
        <mxCell id="FgL4tiW9ZXgM-cEQ66zf-21" value="&lt;font style=&quot;font-size: 15px;&quot;&gt;15/09/23&lt;br&gt;17/09/23&lt;/font&gt;" style="ellipse;whiteSpace=wrap;html=1;aspect=fixed;" vertex="1" parent="1">
          <mxGeometry x="170" y="540" width="80" height="80" as="geometry" />
        </mxCell>
        <mxCell id="FgL4tiW9ZXgM-cEQ66zf-22" value="&lt;font style=&quot;font-size: 15px;&quot;&gt;25/09/23&lt;br&gt;26/09/23&lt;/font&gt;" style="ellipse;whiteSpace=wrap;html=1;aspect=fixed;" vertex="1" parent="1">
          <mxGeometry x="400" y="540" width="80" height="80" as="geometry" />
        </mxCell>
        <mxCell id="FgL4tiW9ZXgM-cEQ66zf-23" value="" style="endArrow=none;html=1;rounded=0;exitX=1;exitY=0.5;exitDx=0;exitDy=0;entryX=0;entryY=0.5;entryDx=0;entryDy=0;" edge="1" parent="1" source="FgL4tiW9ZXgM-cEQ66zf-21" target="FgL4tiW9ZXgM-cEQ66zf-22">
          <mxGeometry width="50" height="50" relative="1" as="geometry">
            <mxPoint x="450" y="510" as="sourcePoint" />
            <mxPoint x="500" y="460" as="targetPoint" />
          </mxGeometry>
        </mxCell>
        <mxCell id="FgL4tiW9ZXgM-cEQ66zf-24" value="&lt;font style=&quot;font-size: 15px;&quot;&gt;Documentation&lt;/font&gt;" style="text;html=1;align=center;verticalAlign=middle;resizable=0;points=[];autosize=1;strokeColor=none;fillColor=none;" vertex="1" parent="1">
          <mxGeometry x="270" y="550" width="120" height="30" as="geometry" />
        </mxCell>
        <mxCell id="FgL4tiW9ZXgM-cEQ66zf-29" value="&lt;font style=&quot;font-size: 15px;&quot;&gt;26/09/23&lt;br&gt;27/09/23&lt;/font&gt;" style="ellipse;whiteSpace=wrap;html=1;aspect=fixed;" vertex="1" parent="1">
          <mxGeometry x="30" y="640" width="80" height="80" as="geometry" />
        </mxCell>
        <mxCell id="FgL4tiW9ZXgM-cEQ66zf-30" value="&lt;font style=&quot;font-size: 15px;&quot;&gt;29/10/23&lt;br&gt;29/10/23&lt;/font&gt;" style="ellipse;whiteSpace=wrap;html=1;aspect=fixed;" vertex="1" parent="1">
          <mxGeometry x="260" y="640" width="80" height="80" as="geometry" />
        </mxCell>
        <mxCell id="FgL4tiW9ZXgM-cEQ66zf-31" value="" style="endArrow=none;html=1;rounded=0;exitX=1;exitY=0.5;exitDx=0;exitDy=0;entryX=0;entryY=0.5;entryDx=0;entryDy=0;" edge="1" parent="1" source="FgL4tiW9ZXgM-cEQ66zf-29" target="FgL4tiW9ZXgM-cEQ66zf-30">
          <mxGeometry width="50" height="50" relative="1" as="geometry">
            <mxPoint x="310" y="610" as="sourcePoint" />
            <mxPoint x="360" y="560" as="targetPoint" />
          </mxGeometry>
        </mxCell>
        <mxCell id="FgL4tiW9ZXgM-cEQ66zf-32" value="&lt;font style=&quot;font-size: 15px;&quot;&gt;Maintenance&lt;/font&gt;" style="text;html=1;align=center;verticalAlign=middle;resizable=0;points=[];autosize=1;strokeColor=none;fillColor=none;" vertex="1" parent="1">
          <mxGeometry x="135" y="650" width="110" height="30" as="geometry" />
        </mxCell>
        <mxCell id="FgL4tiW9ZXgM-cEQ66zf-33" value="&lt;font style=&quot;font-size: 15px;&quot;&gt;30/10/23&lt;br&gt;30/10/23&lt;/font&gt;" style="ellipse;whiteSpace=wrap;html=1;aspect=fixed;" vertex="1" parent="1">
          <mxGeometry x="350" y="730" width="80" height="80" as="geometry" />
        </mxCell>
        <mxCell id="FgL4tiW9ZXgM-cEQ66zf-34" value="&lt;font style=&quot;font-size: 15px;&quot;&gt;31/10/23&lt;br&gt;31/10/23&lt;/font&gt;" style="ellipse;whiteSpace=wrap;html=1;aspect=fixed;" vertex="1" parent="1">
          <mxGeometry x="580" y="730" width="80" height="80" as="geometry" />
        </mxCell>
        <mxCell id="FgL4tiW9ZXgM-cEQ66zf-35" value="" style="endArrow=none;html=1;rounded=0;exitX=1;exitY=0.5;exitDx=0;exitDy=0;entryX=0;entryY=0.5;entryDx=0;entryDy=0;" edge="1" parent="1" source="FgL4tiW9ZXgM-cEQ66zf-33" target="FgL4tiW9ZXgM-cEQ66zf-34">
          <mxGeometry width="50" height="50" relative="1" as="geometry">
            <mxPoint x="630" y="700" as="sourcePoint" />
            <mxPoint x="680" y="650" as="targetPoint" />
          </mxGeometry>
        </mxCell>
        <mxCell id="FgL4tiW9ZXgM-cEQ66zf-36" value="&lt;font style=&quot;font-size: 15px;&quot;&gt;Project Closure&lt;/font&gt;" style="text;html=1;align=center;verticalAlign=middle;resizable=0;points=[];autosize=1;strokeColor=none;fillColor=none;" vertex="1" parent="1">
          <mxGeometry x="445" y="740" width="130" height="30" as="geometry" />
        </mxCell>
      </root>
    </mxGraphModel>
  </diagram>
</mxfile>
